<svg xmlns="http://www.w3.org/2000/svg" width="47" height="30" viewBox="0 0 47 30" fill="none"><path d="M16.512 3.6h13.983v22.797H16.512V3.601Z" fill="#FF5F00"/><path d="M17.951 15.001A14.451 14.451 0 0 1 23.5 3.605 14.54 14.54 0 0 0 8.176 1.964a14.515 14.515 0 0 0-5.964 5.348 14.477 14.477 0 0 0 0 15.382 14.516 14.516 0 0 0 5.964 5.348 14.548 14.548 0 0 0 15.323-1.64 14.451 14.451 0 0 1-5.547-11.4V15Z" fill="#EB001B"/><path d="M47 15c-.001 2.721-.768 5.387-2.214 7.692a14.515 14.515 0 0 1-5.964 5.348 14.548 14.548 0 0 1-15.324-1.643 14.475 14.475 0 0 0 0-22.797 14.54 14.54 0 0 1 15.324-1.643 14.514 14.514 0 0 1 5.964 5.348A14.477 14.477 0 0 1 47 14.997V15Z" fill="#F79E1B"/></svg>
