<svg width="68" height="20" viewBox="0 0 68 20" fill="none" xmlns="http://www.w3.org/2000/svg"><path d="M18.041.492v.009c-.018 0-2.616-.004-3.31 2.55-.637 2.348-2.433 8.827-2.483 9.006h-.496S9.914 5.433 9.269 3.043C8.574.483 5.959.493 5.959.493H0v19.472h5.959V8.4h.496l3.476 11.565h4.138l3.476-11.556h.496v11.556H24V.492h-5.959ZM40.672.492s-1.777.162-2.61 2.041l-4.295 9.524h-.506V.492h-6.063v19.473h5.726s1.861-.17 2.695-2.04L39.83 8.4h.506v11.564h6.063V.492h-5.726ZM48.8 19.964V9.416h18.358c-.879 2.557-3.245 4.388-6.038 4.388h-6.407v6.16H48.8Z" fill="#4DB45E"/><path fill-rule="evenodd" clip-rule="evenodd" d="M61.472.493H48.074c.67 3.763 3.406 6.785 6.946 7.768a9.353 9.353 0 0 0 2.519.346h10.326c.092-.45.134-.907.134-1.381 0-3.72-2.92-6.733-6.527-6.733Z" fill="url(#a)"/><defs><linearGradient id="a" x1="48.076" y1="8.606" x2="67.999" y2="8.606" gradientUnits="userSpaceOnUse"><stop offset=".3" stop-color="#00B4E6"/><stop offset="1" stop-color="#088CCB"/></linearGradient></defs></svg>
