<svg width="59" height="20" viewBox="0 0 59 20" fill="none" xmlns="http://www.w3.org/2000/svg"><path d="m42.952.907-.697 4.042c-2.09-1.155-6.847-1.428-6.847.7 0 .844 1.076 1.426 2.373 2.127 1.968 1.062 4.444 2.4 4.444 5.348 0 4.711-5.03 6.443-8.363 6.443-3.333 0-5.514-1.063-5.514-1.063l.727-4.225c2 1.61 8.06 2.067 8.06-.486 0-1.073-1.193-1.705-2.576-2.439-1.91-1.012-4.18-2.217-4.18-5.037 0-5.167 5.755-6.23 8.18-6.23 2.242 0 4.393.82 4.393.82ZM16.394.975 11.89 13.764l-.532-2.754-1.59-8.36S9.58.974 7.53.974H.088L0 1.289s2.277.486 4.94 2.126L9.041 19.57h4.92L21.477.975h-5.082ZM25.376 19.57h-4.758L23.592.975h4.758L25.376 19.57Z" fill="#005C9C"/><path fill-rule="evenodd" clip-rule="evenodd" d="M58.418 19.57h-4.435l-.566-2.762h-6.14L46.27 19.57h-5.033l7.202-17.21S48.875.976 50.67.976h3.882l3.867 18.595Zm-9.753-6.582 2.538-6.96 1.428 6.96h-3.966Z" fill="#005C9C"/><path fill-rule="evenodd" clip-rule="evenodd" d="M11.168 10.706 9.605 2.591S9.417.966 7.403.966H.085L0 1.27s3.517.738 6.891 3.501c3.225 2.642 4.277 5.934 4.277 5.934Z" fill="#EE9F3F"/></svg>
